<svg enable-background="new 0 0 32 32" height="512" viewBox="0 0 32 32" width="512" xmlns="http://www.w3.org/2000/svg"><path d="m26 32h-20c-3.314 0-6-2.686-6-6v-20c0-3.314 2.686-6 6-6h20c3.314 0 6 2.686 6 6v20c0 3.314-2.686 6-6 6z" fill="#fff9dd"/><g fill="#ffd200"><circle cx="16" cy="14" r="1"/><path d="m22.167 8h-12.334c-1.011 0-1.833.822-1.833 1.833v9c0 1.011.822 1.833 1.833 1.833h.833v2.834c0 .204.125.389.314.464.061.024.124.036.187.036.134 0 .266-.054.363-.156l3.019-3.178h7.619c1.011 0 1.833-.822 1.833-1.833v-9c-.001-1.011-.823-1.833-1.834-1.833zm-2.167 7.167c0 .827-.673 1.5-1.5 1.5-.649 0-1.198-.417-1.406-.996-.315.207-.69.329-1.094.329-1.103 0-2-.897-2-2s.897-2 2-2 2 .897 2 2v1.167c0 .275.225.5.5.5s.5-.225.5-.5v-1.167c0-1.654-1.346-3-3-3s-3 1.346-3 3 1.346 3 3 3c.276 0 .5.224.5.5s-.224.5-.5.5c-2.206 0-4-1.794-4-4s1.794-4 4-4 4 1.794 4 4z"/></g></svg>